# xmcd
#
# Track frame offsets:
#	150
#	18074
#	31954
#	46241
#	53839
#	69721
#	80265
#	96770
#	111386
#	121669
#	137527
#	146133
#	152250
#	166122
#	170961
#	190562
#	204173
#	213141
#	224956
#	240278
#
# Disc length: 3417 seconds
#
# Revision: 0
# Processed by: cddbd v1.4PL0 Copyright (c) Steve Scherf et al.
# Submitted via: EasyCDDAExtractor 4.6.9.1
#
DISCID=090d5714
DTITLE=Csend-Élet Zenekar - Mindig hív az Úr
DYEAR=2002
DGENRE=Other
TTITLE0=Skót dallam
TTITLE1=Hozzád tartozunk
TTITLE2=Jöjj el közénk
TTITLE3=KYRIE - Uram irgalmazz
TTITLE4=Az éj oly sötét
TTITLE5=GLORIA - Dicsõség
TTITLE6=Miénk egy végtelen világ
TTITLE7=Altató
TTITLE8=Összegyûltünk
TTITLE9=Zarándokok
TTITLE10=SANCTUS - Szent vagy
TTITLE11=MIATYÁNK
TTITLE12=Mária
TTITLE13=AGNUS DEI - Isten báránya
TTITLE14=Jászolban a szalmán
TTITLE15=Mindig hív az Úr
TTITLE16=Hosszú az út még
TTITLE17=Szóljon mindenütt az ének
TTITLE18=Bethlehemben gyúlt az a halvány, piciny láng
TTITLE19=Hattyúdal
EXTD=Csend-Élet Zenekar\n\nBíró Kamilla - ének, hegedû\nBatáné Szegedi Hajnalk
EXTD=a - ének, fuvola\nKálnai Zsuzsa - ének, gitár\nNémeth Viktor - ének, gitá
EXTD=r, dalok
EXTT0=
EXTT1=
EXTT2=
EXTT3=
EXTT4=
EXTT5=
EXTT6=
EXTT7=
EXTT8=
EXTT9=
EXTT10=
EXTT11=
EXTT12=
EXTT13=
EXTT14=
EXTT15=
EXTT16=
EXTT17=
EXTT18=
EXTT19=
PLAYORDER=
